HIERARCHY
ROOT Hips
{
	OFFSET 0.00000 0.00000 0.00000
	CHANNELS 6 Xposition Yposition Zposition Zrotation Yrotation Xrotation 
	JOINT LHipJoint
	{
		OFFSET 0 0 0
		CHANNELS 3 Zrotation Yrotation Xrotation
		JOINT LeftHip
		{
			OFFSET 1.24777 -1.64261 0.71711
			CHANNELS 3 Zrotation Yrotation Xrotation
			JOINT LeftKnee
			{
				OFFSET 2.49329 -6.85026 0.00000
				CHANNELS 3 Zrotation Yrotation Xrotation
				JOINT LeftAnkle
				{
					OFFSET 2.36770 -6.50520 0.00000
					CHANNELS 3 Zrotation Yrotation Xrotation
					JOINT LeftToe
					{
						OFFSET 0.14820 -0.40718 2.21395
						CHANNELS 3 Zrotation Yrotation Xrotation
						End Site
						{
							OFFSET 0.00000 -0.00000 1.13491
						}
					}
				}
			}
		}
	}
	JOINT RHipJoint
	{
		OFFSET 0 0 0
		CHANNELS 3 Zrotation Yrotation Xrotation
		JOINT RightHip
		{
			OFFSET -1.18320 -1.64261 0.71711
			CHANNELS 3 Zrotation Yrotation Xrotation
			JOINT RightKnee
			{
				OFFSET -2.46559 -6.77417 0.00000
				CHANNELS 3 Zrotation Yrotation Xrotation
				JOINT RightAnkle
				{
					OFFSET -2.38450 -6.55136 0.00000
					CHANNELS 3 Zrotation Yrotation Xrotation
					JOINT RightToe
					{
						OFFSET -0.17454 -0.47954 2.02925
						CHANNELS 3 Zrotation Yrotation Xrotation
						End Site
						{
							OFFSET -0.00000 -0.00000 1.05076
						}
					}
				}
			}
		}
	}
	JOINT lowerback
	{
		OFFSET 0 0 0
		CHANNELS 3 Zrotation Yrotation Xrotation
		JOINT Chest
		{
			OFFSET -0.02305 1.98660 0.00319
			CHANNELS 3 Zrotation Yrotation Xrotation
			JOINT Chest2
			{
				OFFSET -0.00718 1.99033 -0.00533
				CHANNELS 3 Zrotation Yrotation Xrotation
				JOINT lowerneck
				{
					OFFSET 0 0 0
					CHANNELS 3 Zrotation Yrotation Xrotation
					JOINT Neck
					{
						OFFSET 0.00095 1.61015 0.10698
						CHANNELS 3 Zrotation Yrotation Xrotation
						JOINT Head
						{
							OFFSET -0.01060 1.59924 0.01317
							CHANNELS 3 Zrotation Yrotation Xrotation
							End Site
							{
								OFFSET -0.00458 1.63304 -0.00592
							}
						}
					}
				}
				JOINT LeftCollar
				{
					OFFSET 0 0 0
					CHANNELS 3 Zrotation Yrotation Xrotation
					JOINT LeftShoulder
					{
						OFFSET 3.05381 1.47088 -0.01697
CHANNELS 3 Zrotation Xrotation Yrotation
						JOINT LeftElbow
						{
OFFSET 0 -4.251060 0.000000
CHANNELS 3 Zrotation Xrotation Yrotation
							JOINT LeftWrist
							{
OFFSET 0 -3.275920 0.000000
CHANNELS 3 Zrotation Xrotation Yrotation
								JOINT lhand
								{
									OFFSET 0 0 0
CHANNELS 3 Zrotation Xrotation Yrotation
									JOINT LFingers
									{
OFFSET 0 -0.657810 0.000000
CHANNELS 3 Zrotation Xrotation Yrotation
										End Site
										{
OFFSET 0 -0.530340 0.000000
										}
									}
								}
								JOINT LThumb
								{
OFFSET 0 0.000000 0.000000
CHANNELS 3 Zrotation Xrotation Yrotation
									End Site
									{
OFFSET 0 -0.538440 0.538440
									}
								}
							}
						}
					}
				}
				JOINT RightCollar
				{
					OFFSET 0 0 0
					CHANNELS 3 Zrotation Yrotation Xrotation
					JOINT RightShoulder
					{
						OFFSET -2.83695 1.31619 -0.22674
CHANNELS 3 Zrotation Xrotation Yrotation
						JOINT RightElbow
						{
OFFSET 0 -4.460730 0.000000
CHANNELS 3 Zrotation Xrotation Yrotation
							JOINT RightWrist
							{
OFFSET 0 -3.444160 0.000000
CHANNELS 3 Zrotation Xrotation Yrotation
								JOINT rhand
								{
									OFFSET 0 0 0
CHANNELS 3 Zrotation Xrotation Yrotation
									JOINT RFingers
									{
OFFSET 0 -0.616510 0.000000
CHANNELS 3 Zrotation Xrotation Yrotation
										End Site
										{
OFFSET 0 -0.497050 0.000000
										}
									}
								}
								JOINT RThumb
								{
OFFSET 0 0.000000 0.000000
CHANNELS 3 Zrotation Xrotation Yrotation
									End Site
									{
OFFSET 0 -0.504640 0.504640
									}
								}
							}
						}
					}
				}
			}
		}
	}
}
MOTION
Frames: 8
Frame Time: 0.008333333333333333
-11.644779 16.733089 16.881312 -177.671915 -14.015452 -177.233850 0.000000 0.000000 0.000000 -6.013992 -18.824869 -18.903167 3.672123 11.710843 34.716601 -4.212290 -38.933915 -6.581303 1.286744 7.187921 20.273267 0.000000 0.000000 0.000000 6.873878 18.348556 -15.045673 -9.664317 -17.216511 58.360142 2.175432 27.878906 24.288716 -1.447742 -7.601008 21.510984 -4.431451 -3.739945 0.446585 0.822778 -5.001070 1.032749 3.266874 -2.554291 1.265303 -4.559433 -10.294295 -7.512740 7.038075 -15.934910 17.556471 1.472963 -7.722146 7.570799 0.000000 0.000000 0.000000 -0.525218 -8.453763 -79.100827 35.884213 -45.433017 15.440009 -5.439280 -9.553721 -15.156639 0.000000 0.000000 0.000000 -7.125000 0.000000 0.000000 -29.494277 43.006772 -1.602720 0.000000 0.000000 0.000000 -0.653732 36.268535 28.713232 -43.389321 -49.953613 -20.998671 -23.812100 10.586100 18.996524 0.000000 0.000000 0.000000 7.125000 0.000000 0.000000 4.425135 50.554188 -0.590253
-11.477331 16.705380 16.963084 -177.480316 -16.634769 -177.777711 0.000000 0.000000 0.000000 -5.268783 -20.315940 -19.326868 3.671850 11.710463 34.715138 -4.730048 -39.809684 -4.760871 1.306554 7.240838 20.430849 0.000000 0.000000 0.000000 8.727999 18.804008 -12.781135 -9.359490 -17.033267 57.324898 2.161787 28.154199 25.194269 -2.028348 -8.912155 25.529698 -4.278859 -3.289880 -0.025940 0.663117 -4.376198 1.097508 2.999407 -2.244911 1.515691 -4.307793 -9.920643 -7.768768 7.065053 -15.490896 18.050473 1.466928 -7.474118 7.733252 0.000000 0.000000 0.000000 -0.227900 -8.510834 -77.872538 36.490511 -45.847232 15.873541 -4.725036 -9.668588 -14.775244 0.000000 0.000000 0.000000 -7.125000 0.000000 0.000000 -28.741539 42.749268 -1.754993 0.000000 0.000000 0.000000 -2.217468 36.332541 31.932637 -42.426362 -49.443241 -20.263998 -19.972721 9.767311 16.838667 0.000000 0.000000 0.000000 7.125000 0.000000 0.000000 7.586106 47.687750 -0.493462
-11.302640 16.674585 17.051904 -177.231337 -19.028844 -178.378115 0.000000 0.000000 0.000000 -4.495628 -21.662148 -19.844501 3.684390 11.728106 34.776814 -5.235189 -40.551375 -2.787108 1.349952 7.355335 20.772471 0.000000 0.000000 0.000000 10.745390 19.271239 -10.670076 -9.011821 -16.814934 56.130372 1.970333 27.561355 25.576252 -3.037227 -10.739964 31.423737 -4.125577 -2.819722 -0.379803 0.503079 -3.731344 1.163088 2.745086 -1.924333 1.705796 -3.972109 -9.461518 -8.025836 7.028979 -14.930334 18.562319 1.442580 -7.170036 7.885085 0.000000 0.000000 0.000000 0.176278 -8.399296 -76.443587 37.206395 -46.324435 16.389305 -3.871552 -9.630632 -14.239646 0.000000 0.000000 0.000000 -7.125000 0.000000 0.000000 -27.813968 42.366100 -1.976064 0.000000 0.000000 0.000000 -4.306497 36.178640 35.811513 -41.940354 -49.178340 -19.895366 -15.883709 8.996226 15.390306 0.000000 0.000000 0.000000 7.125000 0.000000 0.000000 10.999812 45.659942 -0.172144
-11.120157 16.643289 17.147426 -176.962721 -21.257327 -178.997399 0.000000 0.000000 0.000000 -3.722601 -22.875991 -20.418980 3.683648 11.727108 34.773289 -5.728647 -41.186728 -0.641967 1.416954 7.527985 21.289418 0.000000 0.000000 0.000000 12.777362 19.667681 -8.776072 -8.657562 -16.581978 54.897740 1.708489 26.380241 25.252849 -4.284821 -12.521287 37.615510 -3.963443 -2.345946 -0.615420 0.323861 -3.088088 1.206093 2.477079 -1.602273 1.812031 -3.513894 -8.945066 -8.264061 6.910652 -14.295667 19.084602 1.383906 -6.830562 8.020212 0.000000 0.000000 0.000000 0.703851 -8.072640 -74.849811 38.035433 -46.861356 16.991604 -2.932404 -9.390605 -13.650385 0.000000 0.000000 0.000000 -7.125000 0.000000 0.000000 -26.802047 41.937996 -2.200608 0.000000 0.000000 0.000000 -6.854964 35.765771 40.163750 -41.765251 -49.081684 -19.762975 -11.684343 8.475429 14.373480 0.000000 0.000000 0.000000 7.125000 0.000000 0.000000 14.497232 44.152754 0.316664
-10.929068 16.614547 17.250912 -176.686337 -23.321791 -179.615339 0.000000 0.000000 0.000000 -2.947797 -23.906665 -21.000408 3.644190 11.671196 34.578632 -6.194611 -41.731468 1.586197 1.466496 7.653028 21.665184 0.000000 0.000000 0.000000 14.719095 19.937403 -7.132226 -8.335520 -16.360393 53.762064 1.640872 25.466785 23.707883 -5.261905 -13.671202 41.939030 -3.785214 -1.861320 -0.736752 0.135258 -2.436729 1.232324 2.197872 -1.274390 1.842951 -3.008505 -8.400855 -8.491017 6.764491 -13.622510 19.588364 1.314411 -6.471677 8.144314 0.000000 0.000000 0.000000 1.338944 -7.581236 -73.159482 38.957170 -47.439197 17.667438 -1.918215 -9.112524 -13.104987 0.000000 0.000000 0.000000 -7.125000 0.000000 0.000000 -25.754012 41.549662 -2.368449 0.000000 0.000000 0.000000 -9.820632 35.052719 44.870573 -41.751557 -49.074026 -19.752608 -8.027750 8.569894 13.514522 0.000000 0.000000 0.000000 7.125000 0.000000 0.000000 17.454333 42.926319 0.927059
-10.728229 16.591526 17.364717 -176.416434 -25.175519 -180.207085 0.000000 0.000000 0.000000 -2.182662 -24.725788 -21.534432 3.549505 11.535429 34.107852 -6.577701 -42.140269 3.621249 1.440531 7.587685 21.468770 0.000000 0.000000 0.000000 16.477930 19.928813 -5.805291 -8.062171 -16.164672 52.786189 1.887938 25.442476 20.567314 -5.606811 -14.036102 43.382456 -3.613431 -1.348493 -0.767341 -0.046105 -1.752573 1.247592 1.933910 -0.929385 1.818316 -2.539678 -7.855593 -8.683610 6.645067 -12.940395 20.031721 1.262804 -6.109054 8.251190 0.000000 0.000000 0.000000 2.049060 -6.985443 -71.411848 39.946506 -48.037655 18.399567 -0.689034 -8.891692 -12.556748 0.000000 0.000000 0.000000 -7.125000 0.000000 0.000000 -24.535594 41.172073 -2.485045 0.000000 0.000000 0.000000 -13.176691 34.026393 49.897685 -41.816925 -49.110244 -19.802019 -5.578343 9.429114 12.888998 0.000000 0.000000 0.000000 7.125000 0.000000 0.000000 19.371022 42.084137 1.454389
-10.518454 16.578789 17.490372 -176.180985 -26.771114 -180.708539 0.000000 0.000000 0.000000 -1.452749 -25.380618 -21.998355 3.396261 11.310192 33.333557 -6.796199 -42.331685 4.994755 1.271646 7.145503 20.147998 0.000000 0.000000 0.000000 17.947952 19.457286 -4.906676 -7.819631 -15.984872 51.910286 2.275839 26.076685 15.893739 -5.291473 -13.703563 42.064820 -3.442012 -0.783389 -0.784170 -0.231581 -1.000020 1.251353 1.667070 -0.550097 1.778919 -2.118175 -7.337106 -8.790519 6.583833 -12.286364 20.358189 1.240091 -5.761140 8.316305 0.000000 0.000000 0.000000 2.793421 -6.370882 -69.640858 40.906559 -48.597548 19.116526 0.777098 -8.650115 -11.691597 0.000000 0.000000 0.000000 -7.125000 0.000000 0.000000 -23.020363 40.516729 -2.709060 0.000000 0.000000 0.000000 -16.828544 32.684195 55.175312 -41.939892 -49.178082 -19.895025 -4.599666 10.873156 12.752958 0.000000 0.000000 0.000000 7.125000 0.000000 0.000000 20.162475 41.860320 1.635422
-10.301360 16.579904 17.628756 -175.978795 -28.163317 -181.052646 0.000000 0.000000 0.000000 -0.745994 -25.981915 -22.457916 3.197818 11.008316 32.308190 -6.818693 -42.254708 5.521184 0.963283 6.245743 17.500086 0.000000 0.000000 0.000000 19.078227 18.385529 -4.516016 -7.568050 -15.792072 50.991221 2.465300 26.499025 10.333194 -4.596203 -12.912103 39.043609 -3.232325 -0.165351 -0.862265 -0.434066 -0.175345 1.239724 1.361585 -0.134565 1.763838 -1.717707 -6.863314 -8.789070 6.591834 -11.688906 20.538957 1.243540 -5.440188 8.324658 0.000000 0.000000 0.000000 3.538054 -5.786494 -67.916818 41.757071 -49.076950 19.756822 1.949296 -8.314632 -10.879740 0.000000 0.000000 0.000000 -7.125000 0.000000 0.000000 -21.785767 39.869521 -2.915934 0.000000 0.000000 0.000000 -20.670451 31.027353 60.581038 -42.151852 -49.294331 -20.055545 -4.717986 12.526237 13.189066 0.000000 0.000000 0.000000 7.125000 0.000000 0.000000 20.204936 42.282377 1.418503
